<?xml version="1.0"?><svg width="1100" height="1200" xmlns="http://www.w3.org/2000/svg" xmlns:xlink="http://www.w3.org/1999/xlink">
 <defs>
  <linearGradient id="linearGradient4902">
   <stop stop-color="#ff6134" offset="0" id="stop4904"/>
   <stop stop-color="#ff0000" offset="1" id="stop4906"/>
  </linearGradient>
  <linearGradient id="linearGradient4894">
   <stop stop-color="#5f0000" stop-opacity="0" offset="0" id="stop4896"/>
   <stop stop-color="#ff0000" stop-opacity="0" offset="0.5" id="stop4898"/>
   <stop stop-color="#590000" offset="1" id="stop4900"/>
  </linearGradient>
  <linearGradient id="linearGradient4884">
   <stop stop-color="#ff0000" stop-opacity="0" offset="0" id="stop4886"/>
   <stop stop-color="#ff0000" stop-opacity="0" offset="0.5" id="stop4888"/>
   <stop stop-color="#a60000" stop-opacity="0" offset="0.75" id="stop4890"/>
   <stop stop-color="#540000" offset="1" id="stop4892"/>
  </linearGradient>
  <linearGradient id="linearGradient2201">
   <stop stop-color="#525252" offset="0" id="stop2203"/>
   <stop stop-color="#d9d9d9" offset="1" id="stop2205"/>
  </linearGradient>
  <linearGradient id="linearGradient2188">
   <stop stop-color="#00f1ff" stop-opacity="0" offset="0" id="stop2190"/>
   <stop stop-color="#00c9ff" stop-opacity="0" offset="0.5" id="stop2194"/>
   <stop stop-color="#0065a6" stop-opacity="0" offset="0.75" id="stop2196"/>
   <stop stop-color="#002454" offset="1" id="stop2192"/>
  </linearGradient>
  <linearGradient id="linearGradient2168">
   <stop stop-color="#000000" offset="0" id="stop2170"/>
   <stop stop-color="#000000" stop-opacity="0" offset="1" id="stop2174"/>
  </linearGradient>
  <linearGradient id="linearGradient2077">
   <stop stop-color="#ffffff" offset="0" id="stop2079"/>
   <stop stop-color="#ffffff" stop-opacity="0" offset="1" id="stop2081"/>
  </linearGradient>
  <linearGradient id="linearGradient2065">
   <stop stop-color="#00575f" stop-opacity="0" offset="0" id="stop2067"/>
   <stop stop-color="#0062ff" stop-opacity="0" offset="0.5" id="stop2073"/>
   <stop stop-color="#002859" offset="1" id="stop2069"/>
  </linearGradient>
  <linearGradient id="linearGradient2053">
   <stop stop-color="#34abff" offset="0" id="stop2055"/>
   <stop stop-color="#0057ff" offset="1" id="stop2057"/>
  </linearGradient>
  <radialGradient gradientTransform="matrix(0.16306613385677338,-0.07617857307195663,0.07617857307195663,0.16306613385677338,200.83071899414062,88.00106048583984)" xlink:href="#linearGradient2077" r="94.285713" id="radialGradient2217" gradientUnits="userSpaceOnUse" fy="263.79074" fx="457.14285" cy="263.79074" cx="457.14285"/>
  <radialGradient gradientTransform="matrix(1.3311476707458496,-0.6218633055686951,0.6218633055686951,1.3311476707458496,-488.5762023925781,-53.61613464355469)" xlink:href="#linearGradient2077" r="94.285713" id="radialGradient2219" gradientUnits="userSpaceOnUse" fy="263.79074" fx="457.14285" cy="263.79074" cx="457.14285"/>
  <radialGradient xlink:href="#linearGradient2077" r="175.43748" id="radialGradient2223" gradientUnits="userSpaceOnUse" gradientTransform="matrix(0.3321629762649536,-0.7714858651161194,1.0934972763061523,0.470804899930954,-475.7793884277344,546.733154296875)" fy="516.86877" fx="480.13391" cy="516.86877" cx="480.13391"/>
  <radialGradient xlink:href="#linearGradient2077" r="175.43748" id="radialGradient2225" gradientUnits="userSpaceOnUse" gradientTransform="matrix(0.12338823825120926,-0.26580455899238586,0.354156494140625,0.14056308567523956,96.36353302001953,589.7159423828125)" fy="516.86877" fx="480.13391" cy="516.86877" cx="480.13391"/>
  <radialGradient xlink:href="#linearGradient2188" r="359.53452" id="radialGradient2232" gradientUnits="userSpaceOnUse" gradientTransform="matrix(0.9683060050010681,-0.21502600610256195,0.296519011259079,1.3352880477905273,-47.51139831542969,-44.661521911621094)" fy="440.37405" fx="413.88809" cy="440.37405" cx="413.88809"/>
  <linearGradient y2="-0.048095" y1="1.249448" xlink:href="#linearGradient2168" x2="0.466066" x1="0.675138" id="linearGradient2235"/>
  <linearGradient y2="0.467047" y1="-0.310131" xlink:href="#linearGradient2065" x2="1.501349" x1="-1.571374" id="linearGradient2241"/>
  <linearGradient y2="1.057928" y1="0.005407" xlink:href="#linearGradient2077" x2="0.431815" x1="0.429635" id="linearGradient2246"/>
  <radialGradient xlink:href="#linearGradient2065" r="372.48581" id="radialGradient2249" gradientUnits="userSpaceOnUse" gradientTransform="matrix(0.9683060050010681,-0.21502600610256195,0.296519011259079,1.3352880477905273,-47.51139831542969,-44.661521911621094)" fy="290.04428" fx="478.65665" cy="290.04428" cx="478.65665"/>
  <radialGradient xlink:href="#linearGradient2053" r="330.32794" id="radialGradient2252" gradientUnits="userSpaceOnUse" gradientTransform="matrix(0.9683060050010681,-0.21502600610256195,0.296519011259079,1.3352880477905273,-47.51139831542969,-44.661521911621094)" fy="233.67064" fx="462.46451" cy="233.67064" cx="462.46451"/>
  <linearGradient y2="0.990345" y1="-0.025823" xlink:href="#linearGradient2053" x2="0.449843" x1="0.56958" id="linearGradient2122"/>
  <linearGradient y2="0.754363" y1="1.009609" xlink:href="#linearGradient2168" x2="0.433662" x1="0.398065" id="linearGradient2126"/>
  <linearGradient y2="0.624332" y1="-0.011376" xlink:href="#linearGradient2168" x2="0.618121" x1="0.288037" id="linearGradient2140"/>
  <linearGradient y2="0.436509" y1="0.378721" xlink:href="#linearGradient2168" x2="0.592232" x1="0.291274" id="linearGradient2144"/>
  <radialGradient xlink:href="#linearGradient2077" r="15.405808" id="radialGradient2155" gradientUnits="userSpaceOnUse" gradientTransform="matrix(1.4686269760131836,0,0,0.425260990858078,236.75302124023438,196.83482360839844)" fy="1378.8025" fx="214.76448" cy="1378.8025" cx="214.76448"/>
  <radialGradient gradientTransform="matrix(0.16068236529827118,-0.2415797859430313,0.48399999737739563,0.8227912783622742,43.98093795776367,197.6528778076172)" xlink:href="#linearGradient2077" r="8.571428" id="radialGradient2169" gradientUnits="userSpaceOnUse" fy="752.36218" fx="378.57144" cy="752.36218" cx="378.57144"/>
  <radialGradient xlink:href="#linearGradient2168" r="32.826073" id="radialGradient2179" gradientUnits="userSpaceOnUse" gradientTransform="matrix(1.2425216436386108,-0.33148372173309326,0.16544820368289948,0.29455670714378357,23.77189826965332,501.3829650878906)" fy="1031.8398" fx="269.78928" cy="1031.8398" cx="269.78928"/>
  <linearGradient y2="0.826268" y1="0.040759" xlink:href="#linearGradient2201" x2="0.503228" x1="0.41051" spreadMethod="pad" id="linearGradient2199"/>
  <radialGradient xlink:href="#linearGradient2201" r="27.479855" id="radialGradient2242" gradientUnits="userSpaceOnUse" gradientTransform="matrix(1.0153640508651733,0,0,0.9848679900169373,164.08839416503906,11.005529403686523)" fy="771.54883" fx="370.70612" cy="771.54883" cx="370.70612"/>
  <linearGradient y2="0.494482" y1="0.067409" xlink:href="#linearGradient2201" x2="0.691833" x1="0.433968" spreadMethod="reflect" id="linearGradient2256"/>
  <linearGradient y2="0.47211" y1="0.442065" xlink:href="#linearGradient2201" x2="0.365985" x1="0.805138" spreadMethod="reflect" id="linearGradient2264"/>
  <linearGradient y2="0.68538" y1="0.590652" xlink:href="#linearGradient2201" x2="0.903966" x1="0.477353" spreadMethod="reflect" id="linearGradient2317"/>
  <linearGradient y2="1.029612" y1="0.159833" xlink:href="#linearGradient2168" x2="0.264356" x1="0.085972" spreadMethod="pad" id="linearGradient2321"/>
  <linearGradient y2="0.399164" y1="0.060159" xlink:href="#linearGradient2168" x2="0.667979" x1="0.165896" spreadMethod="reflect" id="linearGradient2327"/>
  <radialGradient xlink:href="#linearGradient2168" r="14.64712" id="radialGradient2333" gradientUnits="userSpaceOnUse" gradientTransform="matrix(1.5803910493850708,0,0,0.6327549815177917,164.08839416503906,17.005529403686523)" fy="1161.4192" fx="247.70892" cy="1161.0876" cx="247.70894"/>
  <linearGradient id="linearGradient3483">
   <stop stop-color="#ffff34" offset="0" id="stop3485"/>
   <stop stop-color="#ffc200" offset="1" id="stop3487"/>
  </linearGradient>
  <linearGradient id="linearGradient3475">
   <stop stop-color="#5a5f00" stop-opacity="0" offset="0" id="stop3477"/>
   <stop stop-color="#ffde00" stop-opacity="0" offset="0.5" id="stop3479"/>
   <stop stop-color="#cf9800" offset="1" id="stop3481"/>
  </linearGradient>
  <linearGradient id="linearGradient3469">
   <stop stop-color="#ffffff" offset="0" id="stop3471"/>
   <stop stop-color="#ffffff" stop-opacity="0" offset="1" id="stop3473"/>
  </linearGradient>
  <linearGradient id="linearGradient3463">
   <stop stop-color="#000000" offset="0" id="stop3465"/>
   <stop stop-color="#000000" stop-opacity="0" offset="1" id="stop3467"/>
  </linearGradient>
  <linearGradient id="linearGradient3453">
   <stop stop-color="#ffdf00" stop-opacity="0" offset="0" id="stop3455"/>
   <stop stop-color="#ff9f00" stop-opacity="0" offset="0.5" id="stop3457"/>
   <stop stop-color="#ff9a00" stop-opacity="0" offset="0.75" id="stop3459"/>
   <stop stop-color="#793900" offset="1" id="stop3461"/>
  </linearGradient>
  <radialGradient xlink:href="#linearGradient2168" r="14.64712" id="radialGradient4986" gradientUnits="userSpaceOnUse" gradientTransform="matrix(1.572568,-0.157048,6.287884e-2,0.629623,-17.72450,122.4103)" fy="1161.4192" fx="247.70892" cy="1161.0876" cx="247.70894"/>
  <linearGradient y2="0.586128" y1="0.02948" xlink:href="#linearGradient2201" x2="0.429018" x1="0.47594" spreadMethod="reflect" id="linearGradient4989"/>
  <linearGradient y2="0.395225" y1="0.113096" xlink:href="#linearGradient2168" x2="0.656602" x1="0.126613" spreadMethod="reflect" id="linearGradient4992"/>
  <linearGradient y2="0.588378" y1="0.612423" xlink:href="#linearGradient2201" x2="0.648172" x1="0.273806" spreadMethod="reflect" id="linearGradient5001"/>
  <radialGradient xlink:href="#linearGradient2201" r="27.479855" id="radialGradient5004" gradientUnits="userSpaceOnUse" gradientTransform="matrix(1.010338,-0.100900,9.786941e-2,0.979993,-18.32070,116.4401)" fy="771.54883" fx="370.70612" cy="771.54883" cx="370.70612"/>
  <radialGradient xlink:href="#linearGradient2077" r="8.571428" id="radialGradient5007" gradientUnits="userSpaceOnUse" gradientTransform="matrix(0.449331,-0.217335,0.435426,0.900224,-57.84930,230.6680)" fy="752.36218" fx="378.57144" cy="752.36218" cx="378.57144"/>
  <radialGradient xlink:href="#linearGradient2077" r="15.405808" id="radialGradient5010" gradientUnits="userSpaceOnUse" gradientTransform="matrix(1.461357,-0.145942,4.225951e-2,0.423156,92.45066,294.1286)" fy="1378.8025" fx="214.76448" cy="1378.8025" cx="214.76448"/>
  <linearGradient y2="0.431796" y1="0.418981" xlink:href="#linearGradient2168" x2="0.56479" x1="0.261517" id="linearGradient5013"/>
  <linearGradient y2="0.61558" y1="0.029731" xlink:href="#linearGradient2168" x2="0.603024" x1="0.232385" id="linearGradient5016"/>
  <linearGradient y2="0.773021" y1="1.033343" xlink:href="#linearGradient2168" x2="0.428135" x1="0.409672" id="linearGradient5019"/>
  <linearGradient y2="1.006369" y1="-0.026725" xlink:href="#linearGradient4902" x2="0.459908" x1="0.511543" id="linearGradient5022"/>
  <radialGradient xlink:href="#linearGradient2168" r="32.826073" id="radialGradient5025" gradientUnits="userSpaceOnUse" gradientTransform="matrix(1.303875,-0.336820,0.148964,0.459051,-58.59000,432.3650)" fy="1031.8398" fx="269.78928" cy="1031.8398" cx="269.78928"/>
  <radialGradient xlink:href="#linearGradient4884" r="359.53452" id="radialGradient5028" gradientUnits="userSpaceOnUse" gradientTransform="matrix(0.9421449899673462,-0.3101849853992462,0.42774298787117004,1.2992119789123535,-209.14175415039062,82.07592010498047)" fy="440.37405" fx="413.88809" cy="440.37405" cx="413.88809"/>
  <linearGradient y2="0.012545" y1="1.221975" xlink:href="#linearGradient2168" x2="0.441461" x1="0.764014" id="linearGradient5031"/>
  <radialGradient xlink:href="#linearGradient2077" r="175.43748" id="radialGradient5034" gradientUnits="userSpaceOnUse" gradientTransform="matrix(0.388726,-0.315412,0.420253,0.517934,-35.16140,543.4882)" fy="516.86877" fx="480.13391" cy="516.86877" cx="480.13391"/>
  <radialGradient xlink:href="#linearGradient2077" r="175.43748" id="radialGradient5037" gradientUnits="userSpaceOnUse" gradientTransform="matrix(0.652250,-0.529237,0.750136,0.924493,-378.4141,379.6918)" fy="516.86877" fx="480.13391" cy="516.86877" cx="480.13391"/>
  <linearGradient y2="0.395456" y1="-0.159781" xlink:href="#linearGradient4894" x2="1.487236" x1="-1.636298" id="linearGradient5040"/>
  <radialGradient xlink:href="#linearGradient2077" r="94.285713" id="radialGradient5043" gradientUnits="userSpaceOnUse" gradientTransform="matrix(1.151329,-0.379054,0.379054,1.151329,-309.8813,102.1638)" fy="263.79074" fx="457.14285" cy="263.79074" cx="457.14285"/>
  <radialGradient xlink:href="#linearGradient2077" r="94.285713" id="radialGradient5046" gradientUnits="userSpaceOnUse" gradientTransform="matrix(0.402966,-0.132669,0.132669,0.402966,97.22168,186.9416)" fy="263.79074" fx="457.14285" cy="263.79074" cx="457.14285"/>
  <linearGradient y2="1.009528" y1="0.018218" xlink:href="#linearGradient2077" x2="0.455997" x1="0.377801" id="linearGradient5049"/>
  <radialGradient xlink:href="#linearGradient4894" r="372.48581" id="radialGradient5052" gradientUnits="userSpaceOnUse" gradientTransform="matrix(0.942145,-0.310185,0.427743,1.299212,-214.4049,82.07592)" fy="290.04428" fx="478.65665" cy="290.04428" cx="478.65665"/>
  <radialGradient xlink:href="#linearGradient4902" r="330.32794" id="radialGradient5055" gradientUnits="userSpaceOnUse" gradientTransform="matrix(0.942145,-0.310185,0.427743,1.299212,-214.4049,82.07592)" fy="233.67064" fx="462.46451" cy="233.67064" cx="462.46451"/>
  <linearGradient y2="0.957019" y1="0.044676" xlink:href="#linearGradient2201" x2="0.677995" x1="0.235245" spreadMethod="pad" id="linearGradient5058"/>
  <linearGradient y2="0.598027" y1="0.526383" xlink:href="#linearGradient2201" x2="0.938131" x1="0.60932" spreadMethod="reflect" id="linearGradient5070"/>
  <linearGradient y2="1.007272" y1="0.274666" xlink:href="#linearGradient2168" x2="0.324024" x1="0.063803" spreadMethod="pad" id="linearGradient5072"/>
  <radialGradient xlink:href="#linearGradient4902" r="179.96289" id="radialGradient5082" gradientUnits="userSpaceOnUse" gradientTransform="matrix(0.8887172937393188,0,0,1.3730429410934448,-135.79379272460938,0)" fy="318.43384" fx="893.91394" cy="318.43384" cx="893.91394"/>
  <linearGradient y2="0.500001" y1="0.500001" xlink:href="#linearGradient3483" x2="0.999997" x1="-0.000008" id="linearGradient5092"/>
  <linearGradient y2="1.00756" y1="-0.21907" xlink:href="#linearGradient4902" x2="0.520028" x1="0.160825" id="linearGradient5096"/>
  <radialGradient xlink:href="#linearGradient2168" r="14.64712" id="radialGradient5111" gradientUnits="userSpaceOnUse" gradientTransform="matrix(1.458861,0.607749,-0.243330,0.584097,637.6169,-42.12581)" fy="1161.4192" fx="247.70892" cy="1161.0876" cx="247.70894"/>
  <linearGradient y2="0.48326" y1="0.018928" xlink:href="#linearGradient2201" x2="0.548124" x1="0.54919" spreadMethod="reflect" id="linearGradient5114"/>
  <linearGradient y2="0.446716" y1="-0.068301" xlink:href="#linearGradient2168" x2="0.677008" x1="0.341096" spreadMethod="reflect" id="linearGradient5117"/>
  <linearGradient y2="0.949768" y1="-0.478503" xlink:href="#linearGradient2168" x2="0.184133" x1="0.197729" spreadMethod="pad" id="linearGradient5120"/>
  <linearGradient y2="0.920597" y1="0.684806" xlink:href="#linearGradient2201" x2="0.791082" x1="0.521415" spreadMethod="reflect" id="linearGradient5123"/>
  <linearGradient y2="0.387694" y1="0.430737" xlink:href="#linearGradient2201" x2="0.351732" x1="0.695685" spreadMethod="reflect" id="linearGradient5126"/>
  <radialGradient xlink:href="#linearGradient2201" r="27.479855" id="radialGradient5129" gradientUnits="userSpaceOnUse" gradientTransform="matrix(0.937284,0.390464,-0.378737,0.909133,639.9242,-47.66441)" fy="771.54883" fx="370.70612" cy="771.54883" cx="370.70612"/>
  <radialGradient xlink:href="#linearGradient2077" r="8.571428" id="radialGradient5132" gradientUnits="userSpaceOnUse" gradientTransform="matrix(0.498654,2.183142e-2,-4.373857e-2,0.999042,550.9386,34.14071)" fy="752.36218" fx="378.57144" cy="752.36218" cx="378.57144"/>
  <radialGradient xlink:href="#linearGradient2077" r="15.405808" id="radialGradient5135" gradientUnits="userSpaceOnUse" gradientTransform="matrix(1.355691,0.564769,-0.163537,0.392559,635.5392,151.8184)" fy="1378.8025" fx="214.76448" cy="1378.8025" cx="214.76448"/>
  <linearGradient y2="0.377886" y1="0.179325" xlink:href="#linearGradient2168" x2="0.704382" x1="0.41804" id="linearGradient5138"/>
  <linearGradient y2="0.542951" y1="-0.13802" xlink:href="#linearGradient2168" x2="0.677829" x1="0.523984" id="linearGradient5141"/>
  <linearGradient y2="0.555153" y1="0.743774" xlink:href="#linearGradient2168" x2="0.456014" x1="0.348782" id="linearGradient5144"/>
  <linearGradient y2="0.754298" y1="-0.007713" xlink:href="#linearGradient3483" x2="0.406221" x1="0.811032" id="linearGradient5147"/>
  <radialGradient xlink:href="#linearGradient2168" r="32.826073" id="radialGradient5150" gradientUnits="userSpaceOnUse" gradientTransform="matrix(1.307606,0.322029,-8.663122e-2,0.474777,436.9985,201.8591)" fy="1031.8398" fx="269.78928" cy="1031.8398" cx="269.78928"/>
  <radialGradient xlink:href="#linearGradient3453" r="359.53452" id="radialGradient5153" gradientUnits="userSpaceOnUse" gradientTransform="matrix(0.9765340089797974,0.17387700080871582,-0.23977600038051605,1.346634030342102,466.0032958984375,-180.42269897460938)" fy="440.37405" fx="413.88809" cy="440.37405" cx="413.88809"/>
  <linearGradient y2="-0.169117" y1="1.332449" xlink:href="#linearGradient2168" x2="0.552171" x1="0.342629" id="linearGradient5156"/>
  <radialGradient xlink:href="#linearGradient2077" r="175.43748" id="radialGradient5159" gradientUnits="userSpaceOnUse" gradientTransform="matrix(0.491828,-9.325753e-2,0.124256,0.655307,404.9078,310.7969)" fy="516.86877" fx="480.13391" cy="516.86877" cx="480.13391"/>
  <radialGradient xlink:href="#linearGradient2077" r="175.43748" id="radialGradient5162" gradientUnits="userSpaceOnUse" gradientTransform="matrix(0.825249,-0.156479,0.221793,1.169700,180.4389,3.770434)" fy="516.86877" fx="480.13391" cy="516.86877" cx="480.13391"/>
  <linearGradient y2="0.749014" y1="-0.838927" xlink:href="#linearGradient3475" x2="1.414446" x1="-1.028028" id="linearGradient5165"/>
  <radialGradient xlink:href="#linearGradient2077" r="94.285713" id="radialGradient5168" gradientUnits="userSpaceOnUse" gradientTransform="matrix(1.193352,0.212484,-0.212484,1.193352,372.4245,-208.0315)" fy="263.79074" fx="457.14285" cy="263.79074" cx="457.14285"/>
  <radialGradient xlink:href="#linearGradient2077" r="94.285713" id="radialGradient5171" gradientUnits="userSpaceOnUse" gradientTransform="matrix(0.417674,7.436942e-2,-7.436942e-2,0.417674,690.5870,59.72312)" fy="263.79074" fx="457.14285" cy="263.79074" cx="457.14285"/>
  <linearGradient y2="0.495685" y1="0.198272" xlink:href="#linearGradient2077" x2="0.318033" x1="0.544262" id="linearGradient5174"/>
  <radialGradient xlink:href="#linearGradient3475" r="372.48581" id="radialGradient5177" gradientUnits="userSpaceOnUse" gradientTransform="matrix(0.976534,0.173877,-0.239776,1.346634,466.0033,-180.4227)" fy="290.04428" fx="478.65665" cy="290.04428" cx="478.65665"/>
  <radialGradient xlink:href="#linearGradient3483" r="330.32794" id="radialGradient5180" gradientUnits="userSpaceOnUse" gradientTransform="matrix(0.976534,0.173877,-0.239776,1.346634,466.0033,-180.4227)" fy="233.67064" fx="462.46451" cy="233.67064" cx="462.46451"/>
  <linearGradient y2="0.829489" y1="0.053384" xlink:href="#linearGradient2201" x2="0.074149" x1="1.019601" spreadMethod="pad" id="linearGradient5183"/>
  <linearGradient y2="0.974265" y1="-0.024941" xlink:href="#linearGradient3483" x2="0.474396" x1="0.427273" id="linearGradient5187"/>
  <linearGradient y2="0.772016" y1="0.040373" xlink:href="#linearGradient3469" x2="0.05784" x1="0.889642" id="linearGradient5193"/>
  <linearGradient y2="0.818304" y1="0.051013" xlink:href="#linearGradient3463" x2="0.579909" x1="0.196509" id="linearGradient5195"/>
 </defs>
 <g>
  <title>Layer 1</title>
  <g opacity="0.25" id="layer1">
   <path fill="url(#linearGradient2199)" fill-rule="evenodd" stroke-width="1px" id="path2191" d="m533.844849,763.352417l40.333069,399.158081l7.111694,0l-37.38385,-400.168213l-10.060913,1.010132z"/>
   <path opacity="0.75" fill="url(#radialGradient2252)" fill-rule="evenodd" stroke-width="0.625" stroke-linecap="round" stroke-linejoin="round" stroke-miterlimit="4" stroke-dashoffset="0" id="path1291" d="m722.626099,299.832916c39.660156,178.598022 -67.947021,439.466095 -174.544434,466.064301c-103.808289,25.97876 -315.743347,-169.784058 -355.403503,-348.382111c-39.660141,-178.598038 46.860245,-349.907974 193.125885,-382.388256c146.265656,-32.48029 297.161957,86.108044 336.822052,264.706066z"/>
   <path fill="url(#radialGradient2249)" fill-rule="evenodd" stroke-width="0.625" stroke-linecap="round" stroke-linejoin="round" stroke-miterlimit="4" stroke-dashoffset="0" id="path2063" d="m722.626099,299.832916c39.660156,178.598022 -67.94696,439.466095 -174.544434,466.064301c-103.808289,25.97876 -315.743347,-169.784058 -355.403503,-348.382111c-39.660141,-178.598038 46.860245,-349.907974 193.125885,-382.388256c146.265656,-32.48029 297.161896,86.108044 336.822052,264.706066z"/>
   <path opacity="0.6" fill="url(#linearGradient2246)" fill-rule="evenodd" stroke-width="1px" id="path2075" d="m335.282745,84.393448c-12.157379,0.123787 -36.515594,19.763191 -45.869934,30.673256c-19.233917,22.432701 -30.837738,37.649574 -41.845978,61.973808c-16.900192,37.343307 4.574982,39.083755 32.847046,16.119797c21.599426,-17.544098 -12.857819,35.602905 -15.812103,47.41243c-4.933929,19.723129 -24.964172,31.749649 -34.405426,42.761093c-9.848038,11.48587 -7.246063,33.212982 -27.588287,47.100739c-22.197723,15.15451 18.2547,23.314758 29.74617,28.51535c18.36145,8.309723 -10.759567,46.532684 27.888016,20.147766c22.789551,-15.558533 16.76947,-31.54718 31.919952,-1.234772c4.996613,9.99704 47.587585,-37.133667 49.59021,-40.279602c2.33963,-3.675354 -3.854279,-56.895905 -4.639374,-60.431335c-0.01593,-0.071777 13.060547,-19.123932 28.823059,-15.180786c24.449707,6.116364 16.739197,28.76123 38.737122,3.104889c11.176453,-13.035263 25.825195,50.397675 26.333557,52.687073c7.290894,32.832428 48.788025,-4.866486 62.28949,3.72821c14.421021,9.180084 9.084229,39.311646 25.714233,49.897919c13.119202,8.351379 43.27771,-30.363281 47.42041,-36.871033c13.556458,-21.295898 0.689026,-23.510559 38.117737,0.315674c26.362671,16.78183 22.406189,-31.973297 58.261475,-1.230804c21.820435,18.708954 6.770203,-20.076416 7.132874,-33.778107c0.611938,-23.121552 -11.942383,-57.190735 -20.131897,-77.478226c-4.63446,-11.480835 44.37323,16.123657 36.567322,6.513443c-14.237854,-17.5289 -32.694336,-32.145035 -45.857971,-48.35144c-17.054993,-20.997253 -24.404663,-34.87793 -36.559387,-59.196548c-10.501404,-21.010742 -5.946472,-25.339661 -22.61731,-35.951897c-17.602844,-11.205544 -33.647583,17.927864 -44.934875,-4.655304c-7.851196,-15.708252 -37.868958,9.422371 -52.683105,-0.007957c-4.171692,-2.655594 -16.655823,-32.665703 -19.828125,-36.571281c-6.982178,-8.596111 -42.542358,3.59362 -54.233582,6.189819c-3.718933,0.825836 -7.437866,1.65168 -11.156799,2.477516c-12.796326,2.841606 -28.611053,3.426735 -42.457397,6.501495c-1.007141,0.223656 -12.545746,19.486061 -20.76712,25.098816z"/>
   <path fill="url(#radialGradient2217)" fill-rule="evenodd" stroke-width="0.625" stroke-linecap="round" stroke-linejoin="round" stroke-miterlimit="4" stroke-dashoffset="0" id="path2085" d="m504.789307,149.188599c4.789063,21.566101 -8.811432,42.931183 -30.377563,47.720215c-21.566101,4.789047 -42.931183,-8.811447 -47.720215,-30.377563c-4.789063,-21.566101 8.811432,-42.931183 30.377563,-47.720222c21.566101,-4.789047 42.931183,8.811462 47.720215,30.377571z"/>
   <path opacity="0.6" fill="url(#radialGradient2219)" fill-rule="evenodd" stroke-width="0.625" stroke-linecap="round" stroke-linejoin="round" stroke-miterlimit="4" stroke-dashoffset="0" id="path2095" d="m577.308411,133.08493c13.682983,61.617371 -25.175537,122.660309 -86.792908,136.343262c-61.617371,13.682953 -122.660309,-25.175552 -136.343262,-86.792923c-13.682922,-61.617348 25.175568,-122.660301 86.792938,-136.343254c61.617371,-13.682953 122.660309,25.175568 136.343231,86.792915z"/>
   <path opacity="0.4" fill="url(#linearGradient2241)" fill-rule="evenodd" stroke-width="0.625" stroke-linecap="round" stroke-linejoin="round" stroke-miterlimit="4" stroke-dashoffset="0" id="path2125" d="m385.810181,35.134071c-146.26564,32.480278 -232.799622,203.770409 -193.139481,382.368431c39.660141,178.598083 251.606827,374.372009 355.415115,348.39325c106.597473,-26.598145 214.210449,-287.481262 174.550293,-466.079315c-39.660156,-178.598022 -190.560303,-297.162658 -336.825928,-264.682365zm-5.244446,5.358059c5.19989,-1.60392 11.040741,-2.429684 17.649658,-2.254761c19.368164,0.512608 32.663513,26.51405 38.091003,26.657703c20.479126,0.542015 30.72052,-19.316864 45.575256,-18.923691c18.579895,0.491756 21.18866,8.720848 32.842163,16.139168c10.823303,6.889862 24.286865,20.227844 38.737976,29.427048c11.837219,7.535286 32.714844,24.001854 47.103638,27.601357c13.507996,3.379166 31.701477,11.00219 34.698425,24.498055c6.332397,28.516205 -14.448181,21.375092 -14.899414,38.424942c-0.620056,23.425476 41.675842,16.27684 48.039917,44.935608c6.57959,29.629456 -30.816345,41.325897 -22.018616,45.863922c0.177673,0.091644 72.198608,61.527283 30.994995,60.436768c-23.066772,-0.610504 -67.77832,-34.504028 -74.697632,-6.844604c-2.514465,10.051361 -25.863098,61.413116 -44.015686,39.064575c-38.872681,-47.858063 -17.132385,7.841125 -68.795044,6.473785c-17.014343,-0.450317 -14.750671,-19.046906 -14.254089,-37.809082c2.072083,-78.290543 -54.609314,-11.470917 -55.159119,-37.496643c-1.658752,-78.520844 6.577637,-10.144989 -17.646667,-39.968689c-14.593384,-17.96669 -25.614014,-36.774582 -52.063141,-23.555008c-40.782257,20.383438 -6.404938,29.476059 -4.9505,56.702866c1.352386,25.316559 -31.74881,21.715149 -17.675568,39.041412c4.724915,5.817108 30.882141,53.187683 22.316284,47.734863c-3.408569,-2.16983 -6.843811,-4.356567 -10.25238,-6.526398c-36.745483,-23.391327 -37.037476,43.628754 -65.061707,-3.09433c-21.786774,-36.3237 -21.001465,20.856934 -50.22171,37.497681c-11.175735,33.510345 -15.372299,9.771332 -19.197205,-7.453125c-3.455795,-15.562164 -0.494324,-28.606079 -4.328308,-45.871277c-6.254227,-28.164124 15.771164,-21.030457 28.810577,-41.51413c7.587219,-11.918732 36.257599,-30.445648 9.316681,-37.185211c-14.14978,-3.539703 -37.511322,6.5336 -19.844208,-10.222443c11.358398,-10.772659 59.758301,-50.388672 37.207336,-69.723999c-12.698456,-10.887711 -49.657516,-41.663361 -8.374634,-50.83078c36.848633,-8.182755 45.988708,-9.05098 46.798584,-39.650528c0.659485,-24.917038 38.079926,-10.89386 51.461395,-31.914917c8.280731,-13.008209 18.212097,-24.848335 33.811737,-29.660137z"/>
   <path opacity="0.53" fill="url(#radialGradient2223)" fill-rule="evenodd" stroke-width="0.625" stroke-linecap="round" stroke-linejoin="round" stroke-miterlimit="4" stroke-dashoffset="0" id="path2099" d="m565.819458,425.739807c70.705383,107.422607 66.584473,234.944885 -9.204529,284.829102c-75.78894,49.884216 -194.546082,3.240112 -265.251495,-104.182495c-70.705399,-107.422607 -66.584427,-234.944946 9.204529,-284.829132c75.789001,-49.884216 194.546082,-3.240082 265.251495,104.182526l0,0z"/>
   <path opacity="0.3" fill="url(#radialGradient2225)" fill-rule="evenodd" stroke-width="0.625" stroke-linecap="round" stroke-linejoin="round" stroke-miterlimit="4" stroke-dashoffset="0" id="path2109" d="m553.574524,527.863647c39.611633,60.181885 35.107056,133.069641 -10.061279,162.799316c-45.168396,29.729736 -113.896179,5.043274 -153.507843,-55.138611c-39.611664,-60.181946 -35.107086,-133.069702 10.061279,-162.799377c45.168365,-29.729675 113.896149,-5.043274 153.507843,55.138672l0,0z"/>
   <path opacity="0.1" fill="url(#linearGradient2235)" fill-rule="evenodd" stroke-width="1px" id="path2158" d="m387.252808,664.363586c-18.335449,-24.26178 -60.966919,-66.679321 -84.569977,-101.252197c-13.366669,-19.578918 -23.259338,-50.612671 1.322357,-49.962097c37.267578,0.986389 32.962952,59.583496 31.556183,-7.007477c-0.090302,-4.274292 28.978302,44.927032 54.782562,4.39093c20.490784,-32.189056 27.58551,49.667633 31.544922,67.497711c1.540161,6.935669 35.923096,12.725586 49.962097,1.322388c35.296509,-28.669556 6.932983,34.372498 6.566711,48.210205c-0.89093,33.662415 73.164124,-41.607422 76.703491,-46.006348c32.960693,-40.965515 50.845215,-10.706055 72.758911,-45.130371c23.006226,-36.140594 48.394775,-65.382507 66.192261,-93.340637c14.099792,-22.149445 -23.010315,-31.226868 10.08728,-47.76944c25.059875,-12.525177 21.800476,45.561615 16.207642,54.347412c-13.637817,21.423737 -38.608276,14.175079 -39.450867,46.011932c-0.527161,19.917175 -0.879578,33.316956 4.374023,56.975281c4.692627,21.131653 -20.48175,53.45697 -30.250671,68.803162c-13.827637,21.721802 -3.488037,30.228455 -31.56189,44.260071c-19.255798,9.624268 -21.792236,50.292725 -39.450867,46.011902c-13.721924,11.14563 -36.204834,27.079407 -46.023193,35.054321c-18.362915,14.915283 -39.258423,-16.116333 -68.367981,-9.652161c-21.973267,4.879456 -45.830261,-9.489197 -58.286316,-20.169067c-11.998016,-10.287109 -20.750427,-37.526672 -24.09668,-52.59552z"/>
   <path fill="url(#radialGradient2232)" fill-rule="evenodd" stroke-width="0.625" stroke-linecap="round" stroke-linejoin="round" stroke-miterlimit="4" stroke-dashoffset="0" id="path2180" d="m722.626099,299.832916c39.660156,178.598022 -67.94696,439.466095 -174.544434,466.064301c-103.808289,25.97876 -315.743347,-169.784058 -355.403503,-348.382111c-39.660141,-178.598038 46.860245,-349.907974 193.125885,-382.388256c146.265656,-32.48029 297.161896,86.108044 336.822052,264.706066z"/>
   <path opacity="0.3" fill="url(#radialGradient2179)" fill-rule="evenodd" stroke-width="0.625" stroke-linecap="round" stroke-linejoin="round" stroke-miterlimit="4" stroke-dashoffset="0" id="path2171" d="m581.347778,743.762085c1.867737,8.550171 -16.185425,18.505371 -40.318665,22.233215c-24.133301,3.727905 -45.203735,-0.183899 -47.057251,-8.736267c-1.867737,-8.550171 16.185455,-18.505371 40.318726,-22.233215c24.13324,-3.727905 45.203674,0.183899 47.05719,8.736267z"/>
   <path fill="url(#linearGradient2122)" fill-rule="evenodd" stroke-width="1px" id="path1354" d="m536.834717,752.240784c-5.935547,3.64917 -15.408752,17.308472 -18.1828,24.243591c-1.543274,3.858337 -9.091675,5.050964 -13.131958,7.071106c-7.948486,3.974243 -3.739441,11.111694 4.040588,11.111694c10.36261,0 20.274536,0.014282 30.304626,2.020264c7.564758,1.513 15.432739,1.010193 23.233459,1.010193c7.943848,0 8.978638,-5.276367 7.071106,-9.09137c-1.73584,-3.471619 -10.955688,-7.769226 -13.132019,-12.121887c-2.065613,-4.131226 -1.895325,-18.341492 -7.071045,-22.223328c-0.38092,-0.285706 -6.71759,-5.963867 -13.131958,-2.020264z"/>
   <path fill="url(#linearGradient2126)" fill-rule="evenodd" stroke-width="1px" id="path2124" d="m536.834717,752.240784c-5.935547,3.64917 -15.408752,17.308472 -18.1828,24.243591c-1.543274,3.858337 -9.091675,5.050964 -13.131958,7.071106c-7.948486,3.974243 -3.739441,11.111694 4.040588,11.111694c10.36261,0 20.274536,0.014282 30.304626,2.020264c7.564758,1.513 15.432739,1.010193 23.233459,1.010193c7.943848,0 8.978638,-5.276367 7.071106,-9.09137c-1.73584,-3.471619 -10.955688,-7.769226 -13.132019,-12.121887c-2.065613,-4.131226 -1.895325,-18.341492 -7.071045,-22.223328c-0.38092,-0.285706 -6.71759,-5.963867 -13.131958,-2.020264z"/>
   <path opacity="0.467593" fill="url(#linearGradient2140)" fill-rule="evenodd" stroke-width="1px" id="path2138" d="m536.834717,752.240784c-5.935547,3.64917 -15.408752,17.308472 -18.1828,24.243591c-1.543274,3.858337 -9.091675,5.050964 -13.131958,7.071106c-7.948486,3.974243 -3.739441,11.111694 4.040588,11.111694c10.36261,0 20.274536,0.014282 30.304626,2.020264c7.564758,1.513 15.432739,1.010193 23.233459,1.010193c7.943848,0 8.978638,-5.276367 7.071106,-9.09137c-1.73584,-3.471619 -10.955688,-7.769226 -13.132019,-12.121887c-2.065613,-4.131226 -1.895325,-18.341492 -7.071045,-22.223328c-0.38092,-0.285706 -6.71759,-5.963867 -13.131958,-2.020264z"/>
   <path opacity="0.509259" fill="url(#linearGradient2144)" fill-rule="evenodd" stroke-width="1px" id="path2142" d="m536.834717,752.240784c-5.935547,3.64917 -15.408752,17.308472 -18.1828,24.243591c-1.543274,3.858337 -9.091675,5.050964 -13.131958,7.071106c-7.948486,3.974243 -3.739441,11.111694 4.040588,11.111694c10.36261,0 20.274536,0.014282 30.304626,2.020264c7.564758,1.513 15.432739,1.010193 23.233459,1.010193c7.943848,0 8.978638,-5.276367 7.071106,-9.09137c-1.73584,-3.471619 -10.955688,-7.769226 -13.132019,-12.121887c-2.065613,-4.131226 -1.895325,-18.341492 -7.071045,-22.223328c-0.38092,-0.285706 -6.71759,-5.963867 -13.131958,-2.020264z"/>
   <path opacity="0.675926" fill="url(#radialGradient2155)" fill-rule="evenodd" stroke-width="1px" id="path2146" d="m522.692566,783.361572c3.382568,0.437988 11.265564,-0.306152 16.576172,-1.537842c4.494751,-1.042542 7.217102,-1.313171 9.94574,-3.844666c3.948242,-3.662903 3.842407,-0.52887 9.116943,1.89502c2.930237,3.128662 7.176147,2.082764 10.14679,8.101074c2.930298,2.718567 -11.804443,0 -15.948486,0c-4.452026,0 -8.299744,-0.768982 -12.432129,-0.768982c-2.850891,0 -8.665649,-1.048706 -10.774536,-1.537842c-3.28186,-0.761169 -1.585938,-1.370728 -6.630493,-2.306763z"/>
   <path opacity="0.467593" fill="url(#radialGradient2169)" fill-rule="evenodd" stroke-width="0.625" stroke-linecap="round" stroke-linejoin="round" stroke-miterlimit="4" stroke-dashoffset="0" id="path2161" d="m553.531555,760.799866c1.627563,4.445313 1.148315,8.707397 -1.070496,9.519775c-2.21875,0.812378 -5.336853,-2.132629 -6.964417,-6.577942c-1.627563,-4.445313 -1.148254,-8.707458 1.070496,-9.519836c2.218811,-0.812317 5.336853,2.13269 6.964417,6.578003z"/>
   <path fill="url(#radialGradient2242)" fill-rule="nonzero" stroke-width="1px" id="path2223" d="m548.186584,762.835754c-0.315796,0.082092 -0.627747,-0.178406 -0.94165,-0.267578c7.031189,1.463257 0.112488,-0.148071 1.18335,-1.5578c-0.288635,-0.209656 -0.100098,0.0979 -0.230164,0.225037l4.012939,-9.423218c1.895996,1.220398 3.960022,1.866089 5.079102,4.061768c4.66217,11.938721 -2.838989,20.796997 -15.457214,15.350647c-8.585388,-7.900879 -5.36676,-17.926941 6.353638,-18.753418l0,10.364563z"/>
   <path fill="url(#linearGradient2264)" fill-rule="nonzero" stroke-width="1px" id="path2248" d="m553.148804,865.989624c19.502747,32.6026 -39.406921,32.93634 -38.039368,67.422485c1.381714,34.842773 31.457886,19.787537 50.022156,50.330566l1.357727,12.088379c-27.175476,-37.964478 -52.08429,-27.652405 -53.159424,-61.720215c-1.075195,-34.06781 44.852173,-45.570251 40.610046,-61.819519l-0.791138,-6.301697z"/>
   <path fill="url(#linearGradient2317)" fill-rule="nonzero" stroke-width="1px" id="path2284" d="m559.441833,1017.71936c-9.286377,13.30188 -34.107117,17.942749 -33.956238,2.473999c0.359924,-36.898071 41.699036,-9.764893 42.919434,20.403931c0.593811,14.678101 -36.307495,13.991455 -42.145447,26.909912l-1.061096,-8.487061c4.898621,-11.005737 39.144958,-9.574463 37.447876,-17.729492c-5.807373,-27.906677 -21.850159,-36.131714 -32.519775,-27.468811c1.285034,15.130798 21.255981,9.917542 28.940186,-3.584534l0.375061,7.482056z"/>
   <path fill="url(#linearGradient2321)" fill-rule="nonzero" stroke-width="1px" id="path2319" d="m573.875549,1015.307007c-9.286377,9.013062 -48.540833,18.334595 -48.389954,7.853149l4.640991,-4.3172c1.285034,10.25238 35.689697,0.543091 43.37384,-8.605652l0.375122,5.069702z"/>
   <path fill="url(#linearGradient2327)" fill-rule="nonzero" stroke-width="1px" id="path2323" d="m548.186584,762.835754c-0.315796,0.082092 -0.627747,-0.178406 -0.94165,-0.267578c7.031189,1.463257 0.112488,-0.148071 1.18335,-1.5578c-0.288635,-0.209656 -0.100098,0.0979 -0.230164,0.225037l4.012939,-9.423218c1.895996,1.220398 3.960022,1.866089 5.079102,4.061768c4.66217,11.938721 -2.838989,20.796997 -15.457214,15.350647c-8.585388,-7.900879 -5.36676,-17.926941 6.353638,-18.753418l0,10.364563z"/>
   <path fill="url(#linearGradient2256)" fill-rule="nonzero" stroke-width="1px" id="path2246" d="m556.413574,753.555298c-9.750854,22.190857 -12.989746,1.442444 -21.292664,2.753296c-12.743225,-0.024841 -32.129395,6.308838 -38.989014,16.555481c-9.404297,14.047791 -13.050903,28.868408 -5.668945,47.749634c7.430359,19.004822 29.430298,25.711914 53.50061,39.273804l0.311035,4.008179c-18.273865,-14.305908 -48.773743,-14.918457 -58.938538,-36.508789c-10.302673,-21.883179 -9.614685,-39.626526 10.161926,-58.705078c10.473267,-9.743286 22.831238,-17.617065 37.494019,-17.936829l23.42157,2.810303z"/>
   <path opacity="0.638889" fill="url(#radialGradient2333)" fill-rule="nonzero" stroke-width="1px" id="path2329" d="m556.413574,753.555298c-9.750854,22.190857 -12.989746,1.442444 -21.292664,2.753296c-12.743225,-0.024841 -16.791687,-5.243835 -2.128906,-5.563599l23.42157,2.810303z"/>
  </g>
  <path fill="url(#linearGradient5183)" fill-rule="evenodd" stroke-width="1px" id="path3893" d="m695.61969,790.558044l-117.577942,373.779968l10.257202,2.273071l113.304016,-374.654785l-5.983276,-1.398254z"/>
  <path opacity="0.75" fill="url(#radialGradient5180)" fill-rule="evenodd" stroke-width="0.625" stroke-linecap="round" stroke-linejoin="round" stroke-miterlimit="4" stroke-dashoffset="0" id="path3895" d="m1044.440552,433.741455c-32.070435,180.115601 -231.721191,379.542175 -340.349854,363.102295c-105.815796,-15.939087 -226.171539,-278.148804 -194.100922,-458.264404c32.070648,-180.11554 177.815948,-304.979996 325.324432,-278.715256c147.508423,26.264748 241.197144,193.761826 209.126343,373.877365z"/>
  <path fill="url(#radialGradient5177)" fill-rule="evenodd" stroke-width="0.625" stroke-linecap="round" stroke-linejoin="round" stroke-miterlimit="4" stroke-dashoffset="0" id="path3897" d="m1044.440674,433.741486c-32.070557,180.11557 -231.721252,379.542145 -340.349976,363.102264c-105.815796,-15.939087 -226.171539,-278.148804 -194.100922,-458.264404c32.070648,-180.11554 177.815948,-304.979996 325.324432,-278.715256c147.508423,26.264748 241.197144,193.761826 209.126465,373.877396z"/>
  <path opacity="0.6" fill="url(#linearGradient5174)" fill-rule="evenodd" stroke-width="1px" id="path3899" d="m769.732178,85.913872c-11.270142,-4.560928 -41.307678,4.201126 -54.138184,10.67495c-26.38147,13.311142 -42.944702,22.895546 -62.460449,41.115982c-29.961182,27.972565 -10.806763,37.837601 24.122131,27.511734c26.685181,-7.888809 -25.560364,27.920517 -32.828857,37.685806c-12.13916,16.309082 -35.253967,19.708023 -48.203735,26.241989c-13.50769,6.815491 -19.461121,27.872452 -43.579651,32.869522c-26.318542,5.45285 7.885071,28.541809 16.492981,37.761627c13.753906,14.73172 -27.826599,38.816681 17.995483,29.322906c27.020203,-5.598236 27.611633,-22.672424 29.940186,11.135193c0.768005,11.14975 58.20813,-15.978058 61.266541,-18.111938c3.57312,-2.492981 18.321777,-54.002869 18.956604,-57.568329c0.012878,-0.072388 19.410461,-12.630798 32.444458,-2.929321c20.217468,15.048309 4.391724,32.986694 34.56427,17.762695c15.329834,-7.734863 4.458557,56.4534 4.047424,58.762268c-5.89563,33.111389 46.907715,14.26944 56.065796,27.395325c9.781799,14.019806 -6.731873,39.781982 4.548279,55.949341c8.898804,12.754242 51.626099,-11.385681 57.952759,-15.799896c20.703491,-14.445038 9.677185,-21.437653 35.065186,14.949799c17.881836,25.629272 32.978699,-20.898132 54.254578,21.268677c12.947815,25.661438 13.970032,-15.929047 19.573853,-28.437622c9.456482,-21.108185 10.968994,-57.385345 11.210999,-79.262054c0.136963,-12.380188 34.760498,31.947723 31.25061,20.074738c-6.402222,-21.656189 -17.818726,-42.245941 -23.737854,-62.268219c-7.668762,-25.941193 -9.115356,-41.580811 -10.983459,-68.703537c-1.614136,-23.433411 4.255188,-25.677826 -7.052612,-41.884857c-11.940063,-17.113129 -37.954407,3.609863 -39.689209,-21.577301c-1.206726,-17.519501 -38.580322,-5.864944 -48.628784,-20.266953c-2.829651,-4.055618 -2.813232,-36.558838 -4.239685,-41.384018c-3.139587,-10.62011 -40.652832,-13.042618 -52.443359,-15.141998c-3.750549,-0.667809 -7.501099,-1.335609 -11.251587,-2.00341c-12.90509,-2.297821 -27.728699,-7.83934 -41.692688,-10.325722c-1.015686,-0.180847 -19.074463,13.163055 -28.822021,15.182625z"/>
  <path fill="url(#radialGradient5171)" fill-rule="evenodd" stroke-width="0.625" stroke-linecap="round" stroke-linejoin="round" stroke-miterlimit="4" stroke-dashoffset="0" id="path3901" d="m901.286438,210.911087c-3.87262,21.749359 -24.643311,36.241318 -46.392639,32.368729c-21.74939,-3.87262 -36.241333,-24.643311 -32.368774,-46.39267c3.87262,-21.749359 24.643372,-36.241333 46.3927,-32.368729c21.749329,3.87262 36.241333,24.643311 32.368713,46.39267z"/>
  <path opacity="0.6" fill="url(#radialGradient5168)" fill-rule="evenodd" stroke-width="0.625" stroke-linecap="round" stroke-linejoin="round" stroke-miterlimit="4" stroke-dashoffset="0" id="path3903" d="m974.421692,223.933456c-11.064575,62.140884 -70.409363,103.546463 -132.550232,92.481888c-62.14093,-11.064606 -103.546448,-70.409378 -92.481873,-132.550278c11.064575,-62.140915 70.409302,-103.546455 132.550232,-92.48188c62.14093,11.064583 103.546448,70.409355 92.481873,132.55027z"/>
  <path opacity="0.4" fill="url(#linearGradient5165)" fill-rule="evenodd" stroke-width="0.625" stroke-linecap="round" stroke-linejoin="round" stroke-miterlimit="4" stroke-dashoffset="0" id="path3905" d="m835.317078,59.873112c-147.508484,-26.264751 -293.258728,98.576199 -325.329346,278.691738c-32.070618,180.11557 88.291565,442.340118 194.1073,458.279144c108.628723,16.439941 308.290588,-182.998291 340.361145,-363.113861c32.070679,-180.11557 -61.630676,-347.59227 -209.139099,-373.857021zm-6.901611,2.929256c5.416809,0.519062 11.126038,2.002945 17.159485,4.705925c17.681641,7.921326 19.955566,37.036079 24.910461,39.255867c18.695862,8.375702 35.78656,-6.01767 49.347778,0.057739c16.962036,7.598961 16.205627,16.198471 24.110229,27.527756c7.341431,10.522202 14.640503,28.011993 24.442749,42.061066c8.029175,11.507889 20.968994,34.736816 32.867126,43.592819c11.1698,8.313889 25.032715,22.347122 22.609192,35.957657c-5.120605,28.758499 -21.557007,14.175247 -28.530151,29.740433c-9.58075,21.385651 32.211609,31.05188 27.065491,59.954163c-5.320618,29.881195 -44.338745,26.297333 -37.962708,33.869629c0.128784,0.152924 42.985901,84.560303 5.370178,67.708557c-21.058167,-9.434021 -49.297485,-57.915253 -66.321289,-35.043671c-6.186401,8.311462 -47.491028,46.74469 -55.653442,19.134033c-17.479309,-59.126526 -18.830261,0.649811 -65.994324,-20.479584c-15.532776,-6.958649 -6.291748,-23.2547 1.381714,-40.383087c32.019897,-71.473236 -45.998657,-31.589172 -36.497803,-55.824951c28.664429,-73.120575 9.973083,-6.835388 -0.919495,-43.681274c-6.561951,-22.197037 -9.502441,-43.796677 -39.001343,-41.764847c-45.48468,3.132919 -17.24762,24.746292 -26.375244,50.438705c-8.487183,23.889832 -37.65802,7.83609 -31.329956,29.241943c2.124634,7.186768 8.053772,60.973511 2.243469,52.645966c-2.312012,-3.313751 -4.642151,-6.653381 -6.954163,-9.967163c-24.924561,-35.723236 -50.967102,26.030792 -58.868652,-27.876221c-6.142883,-41.908691 -27.407104,11.176819 -60.779602,15.301056c-23.202942,26.635742 -17.947815,3.108429 -14.854858,-14.26236c2.794495,-15.694427 10.544373,-26.596405 13.644653,-44.008301c5.057373,-28.403427 22.645752,-13.348358 42.55957,-27.242447c11.587158,-8.084503 45.177429,-14.161362 22.900024,-30.74292c-11.700439,-8.708923 -37.139282,-8.394058 -14.387085,-17.067581c14.627625,-5.576294 74.540161,-23.533417 61.158875,-50.05397c-7.535034,-14.933731 -29.817017,-57.555588 11.81665,-50.142479c37.161743,6.616867 45.9328,9.330261 58.447693,-18.604774c10.190735,-22.74733 39.340881,4.58773 59.7771,-9.670883c12.646362,-8.823502 26.367188,-15.933968 42.617676,-14.376801z"/>
  <path opacity="0.53" fill="url(#radialGradient5162)" fill-rule="evenodd" stroke-width="0.625" stroke-linecap="round" stroke-linejoin="round" stroke-miterlimit="4" stroke-dashoffset="0" id="path3907" d="m851.274048,489.665344c23.958252,126.352112 -28.885376,242.483337 -118.02948,259.386353c-89.144104,16.903076 -180.831665,-71.822937 -204.789917,-198.175049c-23.958221,-126.352081 28.885376,-242.483307 118.02948,-259.386353c89.144165,-16.903046 180.831726,71.822937 204.789917,198.175049l0,0z"/>
  <path opacity="0.3" fill="url(#radialGradient5159)" fill-rule="evenodd" stroke-width="0.625" stroke-linecap="round" stroke-linejoin="round" stroke-miterlimit="4" stroke-dashoffset="0" id="path3909" d="m800.698364,579.227051c13.422241,70.786926 -18.765381,136.337402 -71.893066,146.411133c-53.127686,10.07373 -107.077026,-39.144043 -120.499329,-109.930908c-13.422241,-70.786865 18.765381,-136.337372 71.893066,-146.411102c53.127686,-10.073761 107.077087,39.143982 120.499329,109.930878l0,0z"/>
  <path opacity="0.1" fill="url(#linearGradient5156)" fill-rule="evenodd" stroke-width="1px" id="path3911" d="m594.674805,641.270264c-7.595459,-29.447083 -30.636719,-84.996948 -39.129517,-125.987854c-4.80957,-23.213623 -2.007324,-55.665161 20.433899,-45.611572c34.0224,15.242004 7.514954,67.677673 31.82428,5.666504c1.560364,-3.980316 9.472961,52.615967 48.881287,25.120239c31.293579,-21.833893 6.364258,56.456421 3.162537,74.437988c-1.245422,6.994629 28.266907,25.561401 45.611572,20.433899c43.607178,-12.891418 -6.818359,34.395386 -12.477844,47.028198c-13.767517,30.731201 83.538269,-10.272156 88.49707,-12.971741c46.179626,-25.140076 51.052368,9.670105 84.518982,-13.679993c35.135132,-24.514221 69.816528,-41.744141 96.996826,-60.708191c21.533264,-15.024048 -9.232361,-37.674316 27.681641,-40.216858c27.949463,-1.92511 2.603027,50.441406 -5.938354,56.400818c-20.827698,14.531799 -41.090393,-1.761963 -54.111267,27.302612c-8.145874,18.182861 -13.624207,30.416687 -17.872498,54.276001c-3.794556,21.311218 -39.463928,41.469849 -54.383118,51.87915c-21.117554,14.733948 -14.84436,26.562561 -46.155273,28.719238c-21.476135,1.479187 -39.456848,38.044922 -54.111267,27.302551c-16.952881,5.011719 -43.834351,11.074219 -55.964417,14.660217c-22.686646,6.706726 -30.04187,-29.974121 -59.398804,-35.201294c-22.159973,-3.945679 -38.65686,-26.383728 -46.048035,-41.03241c-7.119385,-14.109985 -4.723633,-42.620605 -2.0177,-57.817505z"/>
  <path opacity="0.25" fill="url(#radialGradient5153)" fill-rule="evenodd" stroke-width="0.625" stroke-linecap="round" stroke-linejoin="round" stroke-miterlimit="4" stroke-dashoffset="0" id="path3913" d="m1044.440674,433.741486c-32.070557,180.11557 -231.721252,379.542145 -340.349976,363.102264c-105.815796,-15.939087 -226.171539,-278.148804 -194.100952,-458.264404c32.070679,-180.11554 177.815979,-304.979996 325.324463,-278.715256c147.508423,26.264748 241.197144,193.761826 209.126465,373.877396z"/>
  <path opacity="0.3" fill="url(#radialGradient5150)" fill-rule="evenodd" stroke-width="0.625" stroke-linecap="round" stroke-linejoin="round" stroke-miterlimit="4" stroke-dashoffset="0" id="path3915" d="m743.310852,789.203552c-1.563843,8.610901 -22.057129,10.858093 -45.768127,5.018738c-23.710999,-5.839417 -41.65686,-17.553162 -40.078979,-26.160645c1.563904,-8.610901 22.05719,-10.858093 45.768188,-5.018677c23.710938,5.839355 41.65686,17.553101 40.078918,26.160583z"/>
  <path fill="url(#linearGradient5147)" fill-rule="evenodd" stroke-width="1px" id="path3917" d="m698.960266,779.912354c-6.882385,1.08606 -20.879883,10.052063 -26.107544,15.387085c-2.908325,2.968079 -10.334961,1.16626 -14.84137,1.477295c-8.86554,0.612 -7.724915,8.819214 -0.543152,11.811096c9.565735,3.984985 18.7099,7.809875 27.197266,13.518738c6.401184,4.305664 13.857544,6.867249 21.058411,9.867065c7.332886,3.05481 10.3172,-1.417847 10.023438,-5.673035c-0.267273,-3.872192 -7.125488,-11.384827 -7.460632,-16.239685c-0.318115,-4.60791 5.303772,-17.659973 2.018799,-23.233643c-0.24176,-0.410217 -3.907532,-8.088501 -11.345215,-6.914917z"/>
  <path fill="url(#linearGradient5144)" fill-rule="evenodd" stroke-width="1px" id="path3919" d="m698.960266,779.912354c-6.882385,1.08606 -20.879883,10.052063 -26.107544,15.387085c-2.908325,2.968079 -10.334961,1.16626 -14.84137,1.477295c-8.86554,0.612 -7.724915,8.819214 -0.543152,11.811096c9.565735,3.984985 18.7099,7.809875 27.197266,13.518738c6.401184,4.305664 13.857544,6.867249 21.058411,9.867065c7.332886,3.05481 10.3172,-1.417847 10.023438,-5.673035c-0.267273,-3.872192 -7.125488,-11.384827 -7.460632,-16.239685c-0.318115,-4.60791 5.303772,-17.659973 2.018799,-23.233643c-0.24176,-0.410217 -3.907532,-8.088501 -11.345215,-6.914917z"/>
  <path opacity="0.467593" fill="url(#linearGradient5141)" fill-rule="evenodd" stroke-width="1px" id="path3921" d="m698.960266,779.912354c-6.882385,1.08606 -20.879883,10.052063 -26.107544,15.387085c-2.908325,2.968079 -10.334961,1.16626 -14.84137,1.477295c-8.86554,0.612 -7.724915,8.819214 -0.543152,11.811096c9.565735,3.984985 18.7099,7.809875 27.197266,13.518738c6.401184,4.305664 13.857544,6.867249 21.058411,9.867065c7.332886,3.05481 10.3172,-1.417847 10.023438,-5.673035c-0.267273,-3.872192 -7.125488,-11.384827 -7.460632,-16.239685c-0.318115,-4.60791 5.303772,-17.659973 2.018799,-23.233643c-0.24176,-0.410217 -3.907532,-8.088501 -11.345215,-6.914917z"/>
  <path opacity="0.509259" fill="url(#linearGradient5138)" fill-rule="evenodd" stroke-width="1px" id="path3923" d="m698.960266,779.912354c-6.882385,1.08606 -20.879883,10.052063 -26.107544,15.387085c-2.908325,2.968079 -10.334961,1.16626 -14.84137,1.477295c-8.86554,0.612 -7.724915,8.819214 -0.543152,11.811096c9.565735,3.984985 18.7099,7.809875 27.197266,13.518738c6.401184,4.305664 13.857544,6.867249 21.058411,9.867065c7.332886,3.05481 10.3172,-1.417847 10.023438,-5.673035c-0.267273,-3.872192 -7.125488,-11.384827 -7.460632,-16.239685c-0.318115,-4.60791 5.303772,-17.659973 2.018799,-23.233643c-0.24176,-0.410217 -3.907532,-8.088501 -11.345215,-6.914917z"/>
  <path opacity="0.675926" fill="url(#radialGradient5135)" fill-rule="evenodd" stroke-width="1px" id="path3925" d="m673.937988,803.201599c2.954041,1.705139 10.516968,4.049622 15.892883,4.954895c4.549988,0.766113 7.167053,1.563171 10.659363,0.275696c5.053223,-1.862976 3.750305,0.98938 7.687134,5.255249c1.50177,4.014893 5.823364,4.682251 6.251221,11.380066c1.659485,3.636414 -10.896729,-4.539429 -14.722107,-6.133057c-4.109619,-1.712036 -7.365784,-3.901489 -11.18042,-5.490662c-2.631653,-1.096313 -7.595947,-4.300476 -9.354614,-5.562988c-2.736694,-1.964722 -0.936829,-1.875244 -5.233459,-4.679199z"/>
  <path opacity="0.467593" fill="url(#radialGradient5132)" fill-rule="evenodd" stroke-width="0.625" stroke-linecap="round" stroke-linejoin="round" stroke-miterlimit="4" stroke-dashoffset="0" id="path3927" d="m711.081726,794.234253c-0.207031,4.729309 -2.288513,8.479431 -4.649048,8.376099c-2.360596,-0.103333 -4.106323,-4.020996 -3.899292,-8.750366c0.207031,-4.729309 2.288513,-8.479431 4.649048,-8.376099c2.360596,0.103394 4.106323,4.020996 3.899292,8.750366z"/>
  <path fill="url(#radialGradient5129)" fill-rule="nonzero" stroke-width="1px" id="path3929" d="m705.364868,794.058044c-0.32312,-0.045654 -0.510925,-0.406067 -0.766357,-0.60907c5.927795,4.054565 0.160767,-0.093445 1.691406,-0.982971c-0.185852,-0.304504 -0.130066,0.05188 -0.299011,0.119202l7.328064,-7.155396c1.280884,1.855713 2.937927,3.245483 3.126587,5.702637c-0.287476,12.813538 -10.618286,18.106018 -20.171753,8.226074c-4.886841,-10.59491 1.93988,-18.612183 13.076782,-14.868042l-3.985718,9.567566z"/>
  <path fill="url(#linearGradient5126)" fill-rule="nonzero" stroke-width="1px" id="path3931" d="m670.978271,891.479919c5.465515,37.595398 -49.743652,14.957275 -61.743164,47.317383c-12.123535,32.694702 22.130676,30.655273 27.521851,65.988586l-3.395325,11.680908c-10.486267,-45.495483 -38.146423,-45.847412 -26.037903,-77.708862c12.108459,-31.861511 59.628662,-24.525635 61.961548,-41.156677l1.692993,-6.121338z"/>
  <path fill="url(#linearGradient5123)" fill-rule="nonzero" stroke-width="1px" id="path3933" d="m619.737549,1033.669556c-13.687561,8.707886 -56.51239,6.603516 -50.4245,-7.617676c14.521545,-33.92218 58.37561,3.86499 47.900635,32.18335c-5.096436,13.77771 -38.895996,-1.046875 -49.25293,8.633301l2.284241,-8.242554c8.754272,-8.275635 39.816711,6.21521 41.38623,-1.965332c5.370911,-27.993896 -22.403381,-38.599243 -35.583862,-34.705566c-4.632446,14.461426 33.935669,14.172363 46.221191,4.663574l-2.531006,7.050903z"/>
  <path fill="url(#linearGradient5120)" fill-rule="nonzero" stroke-width="1px" id="path3935" d="m617.737549,1033.669556c-13.687561,8.707886 -54.51239,6.603516 -48.4245,-7.617676l6.734314,-4.096802c-4.632446,14.461426 31.935669,14.172363 44.221191,4.663574l-2.531006,7.050903z"/>
  <path fill="url(#linearGradient5117)" fill-rule="nonzero" stroke-width="1px" id="path3937" d="m705.364868,794.058044c-0.32312,-0.045654 -0.510925,-0.406067 -0.766357,-0.60907c5.927795,4.054565 0.160767,-0.093445 1.691406,-0.982971c-0.185852,-0.304504 -0.130066,0.05188 -0.299011,0.119202l7.328064,-7.155396c1.280884,1.855713 2.937927,3.245483 3.126587,5.702637c-0.287476,12.813538 -10.618286,18.106018 -20.171753,8.226074c-4.886841,-10.59491 1.93988,-18.612183 13.076782,-14.868042l-3.985718,9.567566z"/>
  <path fill="url(#linearGradient5114)" fill-rule="nonzero" stroke-width="1px" id="path3939" d="m716.528015,788.654968c-17.534607,16.73468 -12.545471,-3.663757 -20.71405,-5.646606c-11.753723,-4.923462 -32.084717,-6.53186 -42.3573,0.28894c-14.083252,9.351074 -23.148865,21.629578 -23.595398,41.897644c-0.449524,20.400818 19.383179,35.928711 36.387207,57.704163l-1.254211,3.819519c-11.367188,-20.233093 -41.389893,-33.40387 -42.470337,-57.24292c-1.095093,-24.162292 6.363281,-40.276611 31.955872,-50.282837c13.414734,-4.966431 27.850342,-7.482483 41.508484,-2.138977l20.539734,11.601074z"/>
  <path opacity="0.638889" fill="url(#radialGradient5111)" fill-rule="nonzero" stroke-width="1px" id="path3941" d="m716.528015,788.654968c-17.534607,16.73468 -12.545471,-3.663757 -20.71405,-5.646606c-11.753723,-4.923462 -13.483826,-11.297974 0.174316,-5.954468l20.539734,11.601074z"/>
  <path fill="url(#linearGradient5058)" fill-rule="evenodd" stroke-width="1px" id="path4759" d="m446.348694,827.921509l71.3797,339.845947l9.056641,0.895752l-72.505798,-342.349182l-7.930542,1.607483z"/>
  <path opacity="0.75" fill="url(#radialGradient5055)" fill-rule="evenodd" stroke-width="0.625" stroke-linecap="round" stroke-linejoin="round" stroke-miterlimit="4" stroke-dashoffset="0" id="path4761" d="m586.153931,348.334137c57.21167,173.772797 -23.939575,444.042816 -127.366211,481.102264c-100.71283,36.165955 -331.052383,-137.5672 -388.264061,-311.340027c-57.211669,-173.772797 11.856842,-352.832565 154.170799,-399.686943c142.313965,-46.854378 304.247803,56.151894 361.459473,229.924706z"/>
  <path fill="url(#radialGradient5052)" fill-rule="evenodd" stroke-width="0.625" stroke-linecap="round" stroke-linejoin="round" stroke-miterlimit="4" stroke-dashoffset="0" id="path4763" d="m586.153931,348.334137c57.21167,173.772797 -23.939575,444.042816 -127.366211,481.102264c-100.71283,36.165955 -331.052391,-137.5672 -388.264061,-311.340027c-57.211669,-173.772797 11.856842,-352.832565 154.170799,-399.686943c142.313965,-46.854378 304.247803,56.151894 361.459473,229.924706z"/>
  <path opacity="0.15" fill="url(#radialGradient5082)" fill-rule="evenodd" stroke-width="0.625" stroke-linecap="round" stroke-linejoin="round" stroke-miterlimit="4" stroke-dashoffset="0" id="path5074" d="m818.578613,437.223206a159.93605,247.09671 0 1 1 -319.87207,0a159.93605,247.09671 0 1 1 319.87207,0z"/>
  <path opacity="0.6" fill="url(#linearGradient5049)" fill-rule="evenodd" stroke-width="1px" id="path4765" d="m179.319016,172.452621c-12.08493,1.331284 -34.370911,23.294022 -42.594788,35.079651c-16.9095,24.233002 -26.943718,40.527664 -35.480286,65.825424c-13.105629,38.83786 8.436195,38.435638 34.286316,12.775879c19.749084,-19.603668 -9.25621,36.704407 -11.022308,48.749023c-2.94957,20.115814 -21.685539,34.073273 -29.985832,45.968414c-8.657898,12.407623 -3.909721,33.768646 -22.771164,49.609131c-20.581905,17.285339 20.481194,21.385315 32.432579,25.418243c19.096329,6.443939 -6.082199,47.371521 29.752121,17.276703c21.130661,-17.746216 13.551529,-33.057465 31.639252,-4.400665c5.965332,9.45105 43.661926,-41.678772 45.34201,-45.008148c1.96283,-3.889648 -9.48912,-56.231262 -10.621658,-59.671173c-0.022995,-0.069824 11.095505,-20.327118 27.171829,-17.969849c24.936478,3.656403 19.51445,26.955414 38.853897,-0.759949c9.825806,-14.08136 30.705566,47.581879 31.438934,49.809448c10.517456,31.945374 48.062897,-9.690643 62.351624,-2.480133c15.261902,7.701569 12.94577,38.214294 30.545441,47.095612c13.884186,7.006317 40.046204,-34.513641 43.521667,-41.400848c11.373108,-22.537628 -1.650696,-23.462646 37.960419,-3.473785c27.899872,14.079041 19.118042,-34.041595 57.850861,-7.014313c23.571594,16.447998 4.741577,-20.649841 3.740845,-34.319702c-1.688721,-23.067902 -17.566467,-55.720917 -27.731445,-75.094147c-5.752411,-10.96347 45.755798,11.634338 37.033569,2.847382c-15.909241,-16.027283 -35.726898,-28.736984 -50.435852,-43.555054c-19.057129,-19.198502 -27.749725,-32.280121 -42.260925,-55.270523c-12.537323,-19.86319 -8.43515,-24.623291 -26.078003,-33.526367c-18.629242,-9.400833 -31.699463,21.182785 -45.175079,-0.166946c-9.373291,-14.850296 -36.745209,13.138885 -52.423126,5.227371c-4.414917,-2.227905 -19.819458,-30.848862 -23.364197,-34.419868c-7.801819,-7.859718 -41.974609,7.803398 -53.349976,11.548546c-3.618469,1.191299 -7.236923,2.382629 -10.855392,3.573929c-12.450592,4.099152 -28.128906,6.252945 -41.601135,10.688446c-0.979965,0.322632 -10.547287,20.636307 -18.170197,27.038269z"/>
  <path fill="url(#radialGradient5046)" fill-rule="evenodd" stroke-width="0.625" stroke-linecap="round" stroke-linejoin="round" stroke-miterlimit="4" stroke-dashoffset="0" id="path4767" d="m354.425415,220.082626c6.908447,20.983459 -4.501617,43.594284 -25.485077,50.502731c-20.983459,6.908447 -43.594299,-4.501648 -50.502747,-25.485092c-6.908417,-20.983459 4.501648,-43.594299 25.485107,-50.502731c20.983459,-6.908432 43.594299,4.501633 50.502716,25.485092z"/>
  <path opacity="0.6" fill="url(#radialGradient5043)" fill-rule="evenodd" stroke-width="0.625" stroke-linecap="round" stroke-linejoin="round" stroke-miterlimit="4" stroke-dashoffset="0" id="path4769" d="m424.985291,196.852219c19.738342,59.952621 -12.861816,124.554916 -72.814453,144.293259c-59.952637,19.738342 -124.554916,-12.861816 -144.293243,-72.814453c-19.738327,-59.952621 12.861801,-124.554916 72.814423,-144.293243c59.952637,-19.738327 124.554932,12.861816 144.293274,72.814438z"/>
  <path opacity="0.4" fill="url(#linearGradient5040)" fill-rule="evenodd" stroke-width="0.625" stroke-linecap="round" stroke-linejoin="round" stroke-miterlimit="4" stroke-dashoffset="0" id="path4771" d="m224.701279,118.416c-142.313957,46.854385 -211.397948,225.895767 -154.186302,399.668594c57.21167,173.772827 287.563911,347.515869 388.276711,311.349976c103.426697,-37.059448 184.582275,-307.344971 127.370544,-481.117828c-57.21167,-173.772812 -219.147003,-276.755119 -361.460953,-229.900742zm-4.686035,5.852699c5.014771,-2.112717 10.744644,-3.514816 17.338242,-3.997513c19.323242,-1.414589 35.136597,23.13694 40.551514,22.740517c20.43158,-1.495728 28.648865,-22.274025 43.469116,-23.358955c18.536804,-1.357018 21.950439,6.57209 34.283417,12.795647c11.454407,5.780212 26.176758,17.714249 41.47052,25.43187c12.527405,6.321686 34.938019,20.632065 49.613281,22.78389c13.776947,2.020111 32.637878,7.797455 36.961121,20.928711c9.134796,27.745773 -12.252563,22.705048 -11.007294,39.715347c1.710938,23.37114 43.087067,12.054794 52.267548,39.939285c9.491394,28.828949 -26.557159,44.183655 -17.35199,47.824951c0.185883,0.073517 77.955383,54.048126 36.847351,57.057556c-23.013245,1.684723 -70.871613,-27.5979 -75.008057,0.612213c-1.503174,10.251465 -19.632233,63.67923 -39.915833,43.245178c-43.436035,-43.75827 -16.268372,9.504822 -67.811218,13.278107c-16.974854,1.242676 -16.570404,-17.486816 -17.940704,-36.205444c-5.71814,-78.108917 -55.478882,-5.987457 -58.612213,-31.829681c-9.45343,-77.967346 5.536896,-10.748413 -21.531158,-38.017273c-16.306549,-16.427551 -29.141602,-34.04718 -54.146149,-18.264709c-38.55481,24.335175 -3.444138,29.966614 0.708725,56.914093c3.861511,25.056885 -29.433762,24.762665 -13.708405,40.604675c5.279602,5.318787 36.014725,49.85553 26.949387,45.280914c-3.60733,-1.820343 -7.242844,-3.654907 -10.850174,-5.475281c-38.888077,-19.623993 -32.518631,47.093323 -65.047165,3.386383c-25.288528,-33.978882 -18.824875,22.840668 -46.246834,42.302734c-7.79039,34.455078 -14.325188,11.250549 -19.842834,-5.508514c-4.985153,-15.141754 -3.334534,-28.415375 -8.865234,-45.214111c-9.022022,-27.403198 13.603241,-22.493591 24.542564,-44.171631c6.36525,-12.613708 33.052628,-33.89798 5.575363,-37.926971c-14.431503,-2.116089 -36.676392,10.228851 -20.761818,-8.19989c10.231659,-11.848022 54.455223,-56.077606 30.094467,-73.076233c-13.717537,-9.57193 -53.551941,-36.522507 -13.384407,-49.746979c35.853104,-11.804001 44.861633,-13.576218 42.62674,-44.104767c-1.81987,-24.859238 36.808884,-14.624069 48.035187,-36.870819c6.947067,-13.766693 15.652679,-26.535141 30.696945,-32.873299z"/>
  <path opacity="0.53" fill="url(#radialGradient5037)" fill-rule="evenodd" stroke-width="0.625" stroke-linecap="round" stroke-linejoin="round" stroke-miterlimit="4" stroke-dashoffset="0" id="path4773" d="m442.635254,489.200165c81.030334,99.864655 89.60199,227.165253 19.145355,284.333893c-70.456635,57.16864 -193.261108,22.556702 -274.291443,-77.307922c-81.030334,-99.864685 -89.602005,-227.165283 -19.145355,-284.333923c70.45665,-57.16864 193.261108,-22.556702 274.291443,77.307953l0,0z"/>
  <path opacity="0.3" fill="url(#radialGradient5034)" fill-rule="evenodd" stroke-width="0.625" stroke-linecap="round" stroke-linejoin="round" stroke-miterlimit="4" stroke-dashoffset="0" id="path4775" d="m440.599274,592.035278c45.396027,55.947693 48.15683,128.922302 6.166351,162.993347c-41.990448,34.071045 -112.831177,16.336487 -158.227234,-39.611206c-45.396057,-55.947632 -48.156845,-128.922241 -6.166382,-162.993286c41.990448,-34.071045 112.831177,-16.336548 158.227264,39.611145l0,0z"/>
  <path opacity="0.1" fill="url(#linearGradient5031)" fill-rule="evenodd" stroke-width="1px" id="path4777" d="m288.665283,744.387451c-20.65567,-22.319641 -67.29126,-60.290771 -94.21312,-92.346985c-15.246124,-18.153748 -28.173737,-48.050842 -3.649094,-49.846191c37.181152,-2.721924 38.720795,56.012878 30.703644,-10.108643c-0.514618,-4.244141 33.299377,41.824951 54.947723,-1.074707c17.190613,-34.065979 32.384583,46.680481 38.096252,64.02887c2.221741,6.748291 37.009796,9.092773 49.846191,-3.649109c32.272766,-32.035156 10.314331,33.513428 11.325012,47.319031c2.458588,33.584351 68.667297,-48.671997 71.751984,-53.400818c28.726685,-44.038147 49.529663,-15.70575 67.914001,-52.137268c19.300964,-38.247864 41.657959,-69.867981 56.58905,-99.456329c11.828979,-23.440948 -25.999512,-28.785706 5.290405,-48.5354c23.691162,-14.953461 26.220154,43.169708 21.528076,52.467804c-11.441406,22.672913 -37.008545,17.941528 -34.683228,49.704529c1.454651,19.870911 2.435547,33.239441 10.01416,56.258545c6.769287,20.56073 -15.068176,55.227722 -23.263794,71.468689c-11.600586,22.988403 -0.466858,30.425415 -27.007324,47.177368c-18.204132,11.490173 -16.686676,52.209412 -34.683258,49.704529c-12.546417,12.454102 -33.334686,30.543152 -42.31192,39.454285c-16.789886,16.66626 -40.665649,-12.135376 -68.988739,-2.810486c-21.379639,7.038879 -46.546387,-4.887878 -60.002045,-14.2771c-12.960907,-9.043945 -24.376862,-35.27887 -29.203979,-49.940613z"/>
  <path opacity="0.25" fill="url(#radialGradient5028)" fill-rule="evenodd" stroke-width="0.625" stroke-linecap="round" stroke-linejoin="round" stroke-miterlimit="4" stroke-dashoffset="0" id="path4779" d="m591.417053,348.334137c57.21167,173.772797 -23.939575,444.042816 -127.36615,481.102264c-100.71283,36.165955 -331.052414,-137.5672 -388.264084,-311.340027c-57.211672,-173.772797 11.856842,-352.832565 154.170792,-399.686943c142.313995,-46.854378 304.247772,56.151894 361.459442,229.924706z"/>
  <path opacity="0.3" fill="url(#radialGradient5025)" fill-rule="evenodd" stroke-width="0.625" stroke-linecap="round" stroke-linejoin="round" stroke-miterlimit="4" stroke-dashoffset="0" id="path4781" d="m489.689575,804.105164c2.70816,8.322205 -14.266418,20.022156 -37.909729,26.129761c-23.643341,6.107605 -44.99826,4.309021 -47.692444,-4.016846c-2.70816,-8.322205 14.266388,-20.022156 37.909729,-26.129761c23.643341,-6.107605 44.99823,-4.309021 47.692444,4.016846z"/>
  <path fill="url(#linearGradient5022)" fill-rule="evenodd" stroke-width="1px" id="path4783" d="m446.239349,816.96521c-5.543518,4.220947 -13.612427,18.754089 -15.683594,25.930542c-1.152252,3.992493 -8.5448,5.929382 -12.364288,8.341003c-7.514191,4.744446 -2.61673,11.428284 5.124817,10.655151c10.31131,-1.029785 20.175568,-2.000488 30.355316,-1.00116c7.677704,0.753723 15.456757,-0.528442 23.218903,-1.30365c7.90448,-0.789368 8.409821,-6.142395 6.132629,-9.749023c-2.072205,-3.281921 -11.673492,-6.642029 -14.271576,-10.756836c-2.465942,-3.905579 -3.708588,-18.062439 -9.244476,-21.410706c-0.40744,-0.24646 -7.276978,-5.266785 -13.267731,-0.705322z"/>
  <path fill="url(#linearGradient5019)" fill-rule="evenodd" stroke-width="1px" id="path4785" d="m446.239349,816.96521c-5.543518,4.220947 -13.612427,18.754089 -15.683594,25.930542c-1.152252,3.992493 -8.5448,5.929382 -12.364288,8.341003c-7.514191,4.744446 -2.61673,11.428284 5.124817,10.655151c10.31131,-1.029785 20.175568,-2.000488 30.355316,-1.00116c7.677704,0.753723 15.456757,-0.528442 23.218903,-1.30365c7.90448,-0.789368 8.409821,-6.142395 6.132629,-9.749023c-2.072205,-3.281921 -11.673492,-6.642029 -14.271576,-10.756836c-2.465942,-3.905579 -3.708588,-18.062439 -9.244476,-21.410706c-0.40744,-0.24646 -7.276978,-5.266785 -13.267731,-0.705322z"/>
  <path opacity="0.467593" fill="url(#linearGradient5016)" fill-rule="evenodd" stroke-width="1px" id="path4787" d="m446.239349,816.96521c-5.543518,4.220947 -13.612427,18.754089 -15.683594,25.930542c-1.152252,3.992493 -8.5448,5.929382 -12.364288,8.341003c-7.514191,4.744446 -2.61673,11.428284 5.124817,10.655151c10.31131,-1.029785 20.175568,-2.000488 30.355316,-1.00116c7.677704,0.753723 15.456757,-0.528442 23.218903,-1.30365c7.90448,-0.789368 8.409821,-6.142395 6.132629,-9.749023c-2.072205,-3.281921 -11.673492,-6.642029 -14.271576,-10.756836c-2.465942,-3.905579 -3.708588,-18.062439 -9.244476,-21.410706c-0.40744,-0.24646 -7.276978,-5.266785 -13.267731,-0.705322z"/>
  <path opacity="0.509259" fill="url(#linearGradient5013)" fill-rule="evenodd" stroke-width="1px" id="path4789" d="m446.239349,816.96521c-5.543518,4.220947 -13.612427,18.754089 -15.683594,25.930542c-1.152252,3.992493 -8.5448,5.929382 -12.364288,8.341003c-7.514191,4.744446 -2.61673,11.428284 5.124817,10.655151c10.31131,-1.029785 20.175568,-2.000488 30.355316,-1.00116c7.677704,0.753723 15.456757,-0.528442 23.218903,-1.30365c7.90448,-0.789368 8.409821,-6.142395 6.132629,-9.749023c-2.072205,-3.281921 -11.673492,-6.642029 -14.271576,-10.756836c-2.465942,-3.905579 -3.708588,-18.062439 -9.244476,-21.410706c-0.40744,-0.24646 -7.276978,-5.266785 -13.267731,-0.705322z"/>
  <path opacity="0.675926" fill="url(#radialGradient5010)" fill-rule="evenodd" stroke-width="1px" id="path4791" d="m435.259796,849.337341c3.409393,0.09967 11.179382,-1.424133 16.341309,-3.17749c4.368927,-1.484009 7.050903,-2.023865 9.514435,-4.813965c3.564697,-4.037109 3.770844,-0.908081 9.260101,0.979675c3.226685,2.82196 7.347656,1.359314 10.901642,7.052612c3.185913,2.41394 -11.746033,1.173035 -15.869568,1.584839c-4.429962,0.442444 -8.335022,0.059692 -12.446991,0.470337c-2.836792,0.283264 -8.726959,-0.182434 -10.874054,-0.459534c-3.341217,-0.431274 -1.714294,-1.206421 -6.826874,-1.636475z"/>
  <path opacity="0.467593" fill="url(#radialGradient5007)" fill-rule="evenodd" stroke-width="0.625" stroke-linecap="round" stroke-linejoin="round" stroke-miterlimit="4" stroke-dashoffset="0" id="path4793" d="m443.704163,823.822754c2.061249,4.261536 2.007874,8.550293 -0.119171,9.579102c-2.127075,1.02887 -5.5224,-1.591797 -7.583649,-5.853333c-2.061249,-4.261536 -2.007904,-8.550232 0.119202,-9.579102c2.127045,-1.028809 5.522369,1.591797 7.583618,5.853333z"/>
  <path fill="url(#radialGradient5004)" fill-rule="nonzero" stroke-width="1px" id="path4795" d="m438.587891,826.3797c-0.306061,0.113037 -0.642365,-0.115112 -0.963531,-0.172668c7.141754,0.757263 0.097198,-0.158508 1.022675,-1.667725c-0.308075,-0.179871 -0.089905,0.107361 -0.206665,0.246826l3.05661,-9.775391c2.007904,1.026001 4.125885,1.463379 5.457611,3.536987c5.8255,11.416321 -0.75824,20.976196 -13.855225,16.810669c-9.328003,-7.008606 -7.121643,-17.304871 4.458588,-19.291992l1.029938,10.313293z"/>
  <path fill="url(#linearGradient5001)" fill-rule="nonzero" stroke-width="1px" id="path4797" d="m464.554169,908.062683c-9.440369,36.799011 49.86673,38.172607 58.349701,71.627075c8.57074,33.800354 -28.511475,2.12262 -37.636932,36.680237l2.131317,11.976196c15.274353,-44.11908 46.054871,-15.521606 37.410339,-48.491882c-8.644531,-32.970337 -58.675842,-48.739807 -59.223297,-65.524719l-1.031128,-6.266907z"/>
  <g transform="matrix(-0.996009,8.924813e-2,8.924813e-2,0.996009,894.7740,-68.92501)" id="g5066">
   <path fill="url(#linearGradient5070)" fill-rule="nonzero" stroke-width="1px" id="path4799" d="m491.888611,1079.172241c-7.918518,14.158936 -41.628296,31.383911 -43.01535,15.976685c-3.308563,-36.751099 53.222687,-24.290039 57.435059,5.608276c2.049469,14.546387 -34.737396,17.530151 -39.262695,30.964844l-1.899231,-8.3396c3.78067,-11.437988 37.999756,-13.416992 35.500671,-21.363159c-8.551788,-27.191528 -38.03299,-23.351807 -47.78891,-13.671509c2.782227,14.928223 33.601379,-2.562866 39.905731,-16.761719l-0.875275,7.586182z"/>
   <path fill="url(#linearGradient5072)" fill-rule="nonzero" stroke-width="1px" id="path4801" d="m489.618713,1079.375732c-7.918549,14.158813 -39.358398,31.18042 -40.745453,15.773193l3.984894,-6.801147c2.782227,14.928223 31.331451,-2.359497 37.635834,-16.55835l-0.875275,7.586304z"/>
  </g>
  <path fill="url(#linearGradient4992)" fill-rule="nonzero" stroke-width="1px" id="path4803" d="m438.587891,826.3797c-0.306061,0.113037 -0.642365,-0.115112 -0.963531,-0.172668c7.141754,0.757263 0.097198,-0.158508 1.022675,-1.667725c-0.308075,-0.179871 -0.089905,0.107361 -0.206665,0.246826l3.05661,-9.775391c2.007904,1.026001 4.125885,1.463379 5.457611,3.536987c5.8255,11.416321 -0.75824,20.976196 -13.855225,16.810669c-9.328003,-7.008606 -7.121643,-17.304871 4.458588,-19.291992l1.029938,10.313293z"/>
  <path fill="url(#linearGradient4989)" fill-rule="nonzero" stroke-width="1px" id="path4805" d="m430.141205,819.058594c16.074982,18.141296 12.807739,-2.602661 21.113403,-3.896057c12.124054,-3.924133 32.518372,-3.828125 42.185059,3.827148c13.252686,10.495117 21.26059,23.48822 20.012054,43.722717c-1.256653,20.367004 -26.317474,14.183472 -45.081543,34.461975l0.930695,3.911011c13.018097,-19.212585 48.036285,-9.828674 51.104889,-33.49408c3.110168,-23.986328 -2.975708,-40.667542 -27.6427,-52.777161c-12.952789,-6.070007 -27.127686,-9.783386 -41.184601,-5.599792l-21.437256,9.844238z"/>
  <path opacity="0.638889" fill="url(#radialGradient4986)" fill-rule="nonzero" stroke-width="1px" id="path4807" d="m445.851898,816.327637c-7.497345,23.049988 -12.782043,2.726074 -20.913574,4.855591c-12.682678,1.241577 -17.229706,-3.549255 -2.671295,-5.324524l23.584869,0.468933z"/>
  <path opacity="0.15" fill="url(#linearGradient5092)" fill-rule="evenodd" stroke-width="0.625" stroke-linecap="round" stroke-linejoin="round" stroke-miterlimit="4" stroke-dashoffset="0" id="path5084" d="m587.369507,423.726715a95.324661,245.622284 0 1 1 -190.649292,31.290802a95.324661,245.622284 0 1 1 190.649292,-31.290802z"/>
  <path opacity="0.15" fill="url(#linearGradient5096)" fill-rule="evenodd" stroke-width="1px" id="path5094" d="m653.714722,683.680298c-2.30072,3.263672 -1.844421,6.054871 -0.164246,11.60376c0.934753,3.087097 -3.807983,4.584717 -5.618408,6.449402c-3.561768,3.668457 3.193848,8.836487 8.729797,8.238708c7.373535,-0.796265 14.43396,-1.546814 22.627869,-0.774109c6.179932,0.582764 11.513489,-0.40863 17.064209,-1.007996c5.652466,-0.610352 3.608704,-4.74939 0.241272,-7.538086c-3.06427,-2.537598 -11.889099,-5.135681 -15.731079,-8.317322c-3.646545,-3.019836 -11.012695,-9.966064 -16.740784,-12.554993c0.65271,4.106812 -7.922302,0.373657 -10.40863,3.900635z"/>
  <path opacity="0.1" fill="url(#linearGradient5195)" fill-rule="nonzero" stroke-width="1px" id="path5100" d="m650.411865,689.821289c-6.113037,15.955566 4.03772,47.010254 12.004883,65.761108c7.319031,15.226501 15.939636,29.876282 27.587341,42.183105l-6.771606,6.10083c-11.661743,-13.527771 -20.585327,-29.017822 -28.231934,-45.127014c-7.243591,-16.986511 -32.175903,-69.765564 -3.266541,-78.734253l-1.322144,9.816223z"/>
  <path opacity="0.15" fill="url(#linearGradient5187)" fill-rule="evenodd" stroke-width="1px" id="path5185" d="m527.982422,684.216492c-2.292358,1.825867 -5.071045,8.844177 -5.555115,12.43689c-0.269287,1.998718 -3.571777,2.514587 -5.184204,3.514465c-3.172302,1.967102 -0.454529,5.766541 3.087341,5.878784c4.717651,0.149475 9.231689,0.299988 14.023193,1.495483c3.61377,0.901611 7.139282,0.75177 10.690552,0.864319c3.616455,0.114563 3.494995,-2.634277 2.19812,-4.660217c-1.180115,-1.843506 -5.860107,-4.227661 -7.339722,-6.539063c-1.404358,-2.193787 -2.922668,-9.634888 -5.714905,-11.74292c-0.205505,-0.155151 -3.727966,-3.220886 -6.205261,-1.247742z"/>
  <path opacity="0.15" fill="url(#linearGradient5193)" fill-rule="nonzero" stroke-width="1px" id="path5191" d="m520.3974,692.483459c-14.907532,8.349548 -26.978729,38.70929 -32.854858,58.216736c-4.118958,16.38446 -6.868622,33.158508 -5.792908,50.069214l-9.107666,0.355103c-0.305267,-17.857849 2.749329,-35.471497 7.181396,-52.743896c5.303131,-17.688599 19.916656,-74.201416 47.871399,-62.594543l-7.297363,6.697388z"/>
 </g>
</svg>